<?xml version="1.0" encoding="UTF-8"?>
<svg id="Calque_1" xmlns="http://www.w3.org/2000/svg" xmlns:xlink="http://www.w3.org/1999/xlink" version="1.1" viewBox="0 0 1341.2 304.9">
  <!-- Generator: Adobe Illustrator 29.5.1, SVG Export Plug-In . SVG Version: 2.1.0 Build 141)  -->
  <defs>
    <style>
      .st0 {
        fill: url(#Dégradé_sans_nom_3);
      }

      .st1 {
        fill: #133e6c;
      }

      .st2 {
        fill: #153e6d;
      }

      .st3 {
        isolation: isolate;
      }

      .st4 {
        fill: url(#Dégradé_sans_nom_31);
      }

      .st5 {
        fill: url(#Dégradé_sans_nom_33);
      }

      .st6 {
        fill: url(#Dégradé_sans_nom_32);
      }
    </style>
    <linearGradient id="Dégradé_sans_nom_3" data-name="Dégradé sans nom 3" x1="105.1" y1="88.1" x2="74.4" y2="265.2" gradientUnits="userSpaceOnUse">
      <stop offset=".1" stop-color="#14b4c7" stop-opacity="0"/>
      <stop offset=".4" stop-color="#14b4c7"/>
      <stop offset=".7" stop-color="#56b99b"/>
      <stop offset=".9" stop-color="#9fce9d"/>
    </linearGradient>
    <linearGradient id="Dégradé_sans_nom_31" data-name="Dégradé sans nom 3" x1="6673.6" y1="-3757.4" x2="6642.8" y2="-3580.4" gradientTransform="translate(3845.7 6810.3) rotate(-90)" xlink:href="#Dégradé_sans_nom_3"/>
    <linearGradient id="Dégradé_sans_nom_32" data-name="Dégradé sans nom 3" x1="10648.7" y1="2739.3" x2="10618" y2="2916.3" gradientTransform="translate(10785.6 2892.9) rotate(-180)" xlink:href="#Dégradé_sans_nom_3"/>
    <linearGradient id="Dégradé_sans_nom_33" data-name="Dégradé sans nom 3" x1="4345" y1="6764.9" x2="4314.3" y2="6942" gradientTransform="translate(6918.6 -4239.9) rotate(90)" xlink:href="#Dégradé_sans_nom_3"/>
  </defs>
  <g>
    <path class="st0" d="M79.7,167.4c-3.7-7.8-5.8-16-6.1-23.8,0-1.4,0-2.7,0-4,0,0,0,0,0,0,.8-28.3,28.8-28.8,28.8-28.8v-37.3c0,0-.2,0-.3,0-21.2-.6-46.4,11.7-58.2,36.3,0,0,0,.2-.1.2,0,0,0,.2-.1.3-1.7,3.6-3,7.4-4,11.1,0,.3-.2.6-.2.9-.1.5-.3,1.1-.4,1.6-1,4.3-1.6,8.8-1.7,13.6,0,.7,0,1.4,0,2.1.4,26.5,8.3,40.3,10.9,45.6,31,59.3,90.6,55.9,90.6,55.9v-36.3h0c-29.7-.8-49.6-17.6-58.9-37.2Z"/>
    <path class="st4" d="M167.6,162.1c-7.8,3.7-16,5.8-23.8,6.1-1.4,0-2.7,0-4,0,0,0,0,0,0,0-28.3-.8-28.8-28.8-28.8-28.8h-37.3c0,0,0,.2,0,.3-.6,21.2,11.7,46.4,36.3,58.2,0,0,.2,0,.2.1,0,0,.2,0,.3.1,3.6,1.7,7.4,3,11.1,4,.3,0,.6.2.9.2.5.1,1.1.3,1.6.4,4.3,1,8.8,1.6,13.6,1.7.7,0,1.4,0,2.1,0,26.5-.4,40.3-8.3,45.6-10.9,59.3-31,55.9-90.6,55.9-90.6h-36.3c-.7,29.7-17.6,49.6-37.2,58.9Z"/>
    <path class="st6" d="M162.3,74.3c3.7,7.8,5.8,16,6.1,23.8,0,1.4,0,2.7,0,4,0,0,0,0,0,0-.8,28.3-28.8,28.8-28.8,28.8v34s0,3.3,0,3.3c0,0,.2,0,.3,0,21.2.6,46.4-11.7,58.2-36.3,0,0,0-.2.1-.2,0,0,0-.2.1-.3,1.7-3.6,3-7.4,4-11.1,0-.3.2-.6.2-.9.1-.5.3-1.1.4-1.6,1-4.3,1.6-8.8,1.7-13.6,0-.7,0-1.4,0-2.1-.4-26.5-8.3-40.3-10.9-45.6C163-2.6,103.4.8,103.4.8v4.1s0,32.2,0,32.2h0c29.7.8,49.6,17.6,58.9,37.2Z"/>
    <path class="st5" d="M74.4,79.7c7.8-3.7,16-5.8,23.8-6.1,1.4,0,2.7,0,4,0,0,0,0,0,0,0,28.3.8,28.8,28.8,28.8,28.8h34s3.3,0,3.3,0c0,0,0-.2,0-.3.6-21.2-11.7-46.4-36.3-58.2,0,0-.2,0-.2-.1,0,0-.2,0-.3-.1-3.6-1.7-7.4-3-11.1-4-.3,0-.6-.2-.9-.2-.5-.1-1.1-.3-1.6-.4-4.3-1-8.8-1.6-13.6-1.7-.7,0-1.4,0-2.1,0-26.5.4-40.3,8.3-45.6,10.9C-2.6,79.1.9,138.6.9,138.6h4.1s32.2,0,32.2,0h0c.7-29.7,17.6-49.6,37.2-58.9Z"/>
  </g>
  <g>
    <g class="st3">
      <g class="st3">
        <path class="st1" d="M288.2,270.5l10.5-1.1c.3,6.4,3.7,9.3,10.4,9.3s7.4-1.8,7.4-5.1-3-4.6-10.2-6.4c-10.5-2.6-16.8-6.1-16.8-15.3s8-15.1,18.2-15.1,18.8,5.5,19.7,17.1l-9.8,1.3c-.7-6.1-3.8-9.2-9.7-9.2s-7,2.1-7,5.1,2.7,4.8,11.5,7.1c9.4,2.5,15.6,5.8,15.6,14.6s-7.5,15.2-18.6,15.2-20.5-4.9-21-17.4Z"/>
        <path class="st1" d="M358.7,249.5h11.6l-12.6,38.7c-4.2,13.3-14.8,15.6-26.1,12.8l1.8-8.8c8.4,2.1,12.7.9,14.3-4l.3-1h-4.4l-12.3-37.7h11.6l5.9,22.5c.7,2.6,1.4,5.4,2,8,.6-2.5,1.3-5.1,2-7.9l5.9-22.6Z"/>
        <path class="st1" d="M410.2,263.1v24.1h-10.3v-21.3c0-5.2-1.9-7.6-6.2-7.6s-8.2,3.5-8.2,10.7v18.2h-10.3v-37.7h9.1v7.5c2-5.1,6-8.2,12.3-8.2,9.5,0,13.5,5.8,13.5,14.3Z"/>
        <path class="st1" d="M445.5,249.5h9.1v52.2h-10.3v-19.6c-2.2,3.8-5.9,5.9-11.2,5.9-10.1,0-16.8-7.8-16.8-19.7s6.7-19.5,16.8-19.5,10.3,2.8,12.3,7.8v-7.1ZM444.7,268.3c0-6.2-3.8-10.3-9.3-10.3s-8.7,4-8.7,10.3,3.2,10.6,8.7,10.6,9.3-4.3,9.3-10.6Z"/>
        <path class="st1" d="M460.9,268.4c0-11.5,7.1-19.6,19.3-19.6s19.3,8.1,19.3,19.6-7.1,19.6-19.3,19.6-19.3-8.1-19.3-19.6ZM489.4,268.4c0-6.4-3.6-10.4-9.1-10.4s-9.2,4-9.2,10.4,3.6,10.5,9.2,10.5,9.1-4,9.1-10.5Z"/>
        <path class="st1" d="M521.2,287.2v-49.8h33v9.6h-21.8v10.3h18.8v8.8h-18.8v11.6h22.5v9.6h-33.7Z"/>
        <path class="st1" d="M597.2,263.1v24.1h-10.3v-21.3c0-5.2-1.9-7.6-6.2-7.6s-8.2,3.5-8.2,10.7v18.2h-10.3v-37.7h9.1v7.5c2-5.1,6-8.2,12.3-8.2,9.5,0,13.5,5.8,13.5,14.3Z"/>
        <path class="st1" d="M639.5,271.2h-26c.8,5.5,3.8,8.4,8.6,8.4s7.2-1.7,8.2-5.2l8.7,1.3c-1.7,8.1-8.1,12.3-16.8,12.3s-18.9-8.1-18.9-19.6,7.2-19.6,18.5-19.6,17.8,7.4,17.8,19,0,2.1-.2,3.4ZM613.6,264.7h16c-.4-5.1-3.4-7.6-7.7-7.6s-7.4,2.6-8.3,7.6Z"/>
        <path class="st1" d="M655.2,257.4c2.1-6,6.9-9.6,13.9-8.4v11.1c-6.7-1.4-12.8,1.6-12.8,10.2v17h-10.2v-37.7h9v7.9Z"/>
        <path class="st1" d="M701.3,249.5h9v34.9c0,11.8-7.9,18-20,18s-12.9-2.1-17.5-6.6l4.8-7.1c3.4,3.5,8.1,5.4,13,5.4s10.6-3,10.6-10.1v-4.6c-2.1,4.9-6.2,7.6-12.3,7.6-10.2,0-16.9-7.6-16.9-19.2s6.7-19.1,16.9-19.1,10.3,2.6,12.4,7.4v-6.7ZM700.5,267.9c0-6.1-3.7-10.2-9.4-10.2s-8.8,3.9-8.8,10.2,3.2,10.4,8.8,10.4,9.4-4.2,9.4-10.4Z"/>
        <path class="st1" d="M717.7,239.5c0-3.4,2.9-6.1,6.3-6.1s6.4,2.7,6.4,6.1-2.9,6.1-6.4,6.1-6.3-2.7-6.3-6.1ZM718.9,287.2v-37.7h10.3v37.7h-10.3Z"/>
        <path class="st1" d="M771.7,271.2h-26c.8,5.5,3.8,8.4,8.6,8.4s7.2-1.7,8.2-5.2l8.7,1.3c-1.7,8.1-8.1,12.3-16.8,12.3s-18.9-8.1-18.9-19.6,7.2-19.6,18.5-19.6,17.8,7.4,17.8,19,0,2.1-.2,3.4ZM745.8,264.7h16c-.4-5.1-3.4-7.6-7.7-7.6s-7.4,2.6-8.3,7.6Z"/>
        <path class="st1" d="M776.3,274.7l9.7-.9c.6,4.7,3.6,6.4,8,6.4s5.5-1.2,5.5-3.4-2-3.1-6.9-4.1c-10.5-2.2-15-5.1-15-12.1,0-7.6,6.5-11.8,15-11.8s15.9,5.2,16.4,13.3l-9.3.8c-.5-4.5-3-6.4-7.1-6.4s-5.2,1.4-5.2,3.4,1.5,3.3,7.3,4.6c10.1,2.2,14.9,4.8,14.8,11.8,0,7.1-5.9,11.7-15.4,11.7s-17.1-4-17.8-13.3Z"/>
      </g>
    </g>
    <g class="st3">
      <g class="st3">
        <path class="st2" d="M348.4,95.9h67.1v77.2h-23.8l-.8-25.1c-6.9,17.8-23.1,27.2-45.8,27.2-39.9,0-65.9-30.2-65.9-74.5s27.1-74.6,71.8-74.6,58.5,16.4,64,51.8l-32.2,5.3c-3.5-21.5-15-29.8-32.8-29.8s-37.4,16.5-37.4,46.6,13.4,47.9,38.9,47.9,30.2-8.7,33.2-28.3h-36.2v-23.8Z"/>
        <path class="st2" d="M548.9,148.1v24.3c-4.9,1.2-9.4,1.6-14.9,1.6-16.4,0-22.6-4.7-24.3-17.5-6,11.9-19.3,18.6-37.4,18.6s-37.4-14.3-37.4-33.9,21.2-31.8,51.4-31.8,13.9.6,20.3,1.6v-4.3c0-12.3-4.5-21.2-19.5-21.2s-18.5,5.5-19.8,17l-28.6-3.3c1.8-24.9,20.8-38,48.4-38,42.8,0,48.8,24.9,48.8,45.8v33.3c0,5.5,1.4,8.2,7.2,8.2s3.9-.1,6-.4ZM506.4,141.4v-11.9c-5.3-1-10.5-1.4-16.2-1.4-15.9,0-23.3,3.9-23.3,12.1s5.5,12.3,15.4,12.3,19.3-4.1,24.1-11Z"/>
        <path class="st2" d="M648.1,63.3v24l-50.8,60.6h50.6v25.2h-89v-23.6l50.9-61h-49.4v-25.2h87.7Z"/>
        <path class="st2" d="M672,173.1V28.2h54.7c50.1,0,74.1,27.6,74.1,72.3s-24,72.5-74.1,72.5h-54.7ZM704.6,145.9h22.6c28.2,0,40.2-15,40.2-45.4s-12-45.1-40.2-45.1h-22.6v90.5Z"/>
        <path class="st2" d="M918.9,126.4h-75.6c2.3,15.9,11,24.3,25.1,24.3s21.1-5,23.8-15l25.2,3.9c-5,23.6-23.5,35.7-48.9,35.7s-54.8-23.6-54.8-56.9,20.9-57.1,53.9-57.1,51.8,21.6,51.8,55.4-.1,6-.6,9.8ZM843.6,107.6h46.5c-1.2-14.8-9.9-22.2-22.4-22.2s-21.5,7.7-24.1,22.2Z"/>
        <path class="st2" d="M1010.6,170.9c-7.5,2.5-15.2,3.7-24.2,3.7-27,0-39.1-14.4-39.1-39.3v-46.7h-18.6v-25.2h18.6v-30l29.9-4.2v34.2h31.1v25.2h-31.1v42.7c0,11,3.7,17.2,14.9,17.2s9.2-.8,13.8-2.3l4.7,24.9Z"/>
        <path class="st2" d="M1125.2,126.4h-75.6c2.3,15.9,11,24.3,25.1,24.3s21.1-5,23.8-15l25.2,3.9c-5,23.6-23.5,35.7-48.9,35.7s-54.8-23.6-54.8-56.9,20.9-57.1,53.9-57.1,51.8,21.6,51.8,55.4-.1,6-.6,9.8ZM1049.8,107.6h46.5c-1.2-14.8-9.9-22.2-22.4-22.2s-21.5,7.7-24.1,22.2Z"/>
        <path class="st2" d="M1139.7,118.2c0-33.1,20.7-56.9,55.5-56.9s47.5,12.3,52.6,42.8l-28.4,2.8c-2.6-13-10.8-19.9-23.8-19.9s-25.9,12.6-25.9,31.3,9.1,31.4,25.9,31.4,21.3-6.9,23.8-20.1l28.4,2.9c-5.1,30.5-25.3,42.8-52.6,42.8s-55.5-23.8-55.5-57.1Z"/>
        <path class="st2" d="M1338.6,170.9c-7.5,2.5-15.2,3.7-24.2,3.7-27,0-39.1-14.4-39.1-39.3v-46.7h-18.6v-25.2h18.6v-30l29.9-4.2v34.2h31.1v25.2h-31.1v42.7c0,11,3.7,17.2,14.9,17.2s9.2-.8,13.8-2.3l4.7,24.9Z"/>
      </g>
    </g>
  </g>
</svg>